<svg id="Capa_1" enable-background="new 0 0 512.01 512.01" height="512" viewBox="0 0 512.01 512.01" width="512" xmlns="http://www.w3.org/2000/svg"><path d="m317.01 0c-107.523 0-195 87.477-195 195 0 37.494 10.647 72.544 29.062 102.303l-137.882 137.883c-17.584 17.584-17.588 46.047-.001 63.635 17.585 17.585 46.048 17.588 63.636 0l137.882-137.882c29.759 18.414 64.809 29.061 102.303 29.061 107.523 0 195-87.477 195-195s-87.476-195-195-195zm-261.398 477.607c-5.862 5.861-15.346 5.862-21.209 0-5.86-5.859-5.862-15.347 0-21.208l134.593-134.593c6.519 7.598 13.611 14.69 21.209 21.209zm261.398-117.607c-90.981 0-165-74.019-165-165s74.019-165 165-165 165 74.019 165 165-74.018 165-165 165z"/><path d="m317.01 60c-74.439 0-135 60.561-135 135s60.561 135 135 135 135-60.561 135-135-60.56-135-135-135zm103.924 120h-44.27c-1.17-26.215-5.672-56.048-15.912-80.444 31.77 14.618 55.038 44.642 60.182 80.444zm-103.924 120c-17.34 0-28.395-64.573-29.629-90.01h59.257c-1.556 32.099-13.968 90.01-29.628 90.01zm-29.628-120c1.557-32.089 13.969-90 29.629-90 17.34 0 28.395 64.573 29.629 90zm-14.113-80.444c-10.239 24.392-14.742 54.223-15.912 80.444h-44.27c5.143-35.802 28.412-65.826 60.182-80.444zm-60.183 110.444h44.27c1.17 26.215 5.672 56.048 15.912 80.444-31.769-14.618-55.038-44.642-60.182-80.444zm147.665 80.444c10.239-24.392 14.742-54.223 15.912-80.454h44.27c-5.143 35.812-28.411 65.836-60.182 80.454z"/></svg>