<?xml version="1.0" encoding="utf-8"?>
<!-- Svg Vector Icons : http://www.onlinewebfonts.com/icon -->
<!DOCTYPE svg PUBLIC "-//W3C//DTD SVG 1.1//EN" "http://www.w3.org/Graphics/SVG/1.1/DTD/svg11.dtd">
<svg version="1.1" xmlns="http://www.w3.org/2000/svg" xmlns:xlink="http://www.w3.org/1999/xlink" x="0px" y="0px" viewBox="0 0 1000 1000" enable-background="new 0 0 1000 1000" xml:space="preserve">
<metadata> Svg Vector Icons : http://www.onlinewebfonts.com/icon </metadata>
<g><g><g><path d="M235.4,704.4h-94.6c74.4,145.3,225.6,244.8,400.1,244.8C788.9,949.2,990,748.1,990,500c0-248.1-201.1-449.2-449.2-449.2c-220.2,0-403.4,158.4-441.8,367.5H10l122.5,163.3L255,418.3h-72.6c37.2-163.7,183.5-285.8,358.4-285.8c203,0,367.5,164.5,367.5,367.5S743.8,867.5,540.8,867.5C413.5,867.5,301.3,802.7,235.4,704.4z"/><polygon points="520.4,215.5 520.4,514.3 733.2,639.7 753.9,604.5 561.3,490 561.3,215.5 "/></g></g><g></g><g></g><g></g><g></g><g></g><g></g><g></g><g></g><g></g><g></g><g></g><g></g><g></g><g></g><g></g></g>
</svg>