<svg height="512pt" viewBox="-33 0 512 512.0008" width="512pt" xmlns="http://www.w3.org/2000/svg"><path d="m419.523438 401.792969c-1.542969-8.875-9.203126-15.3125-18.21875-15.3125h-108.03125c-10.195313 0-18.488282 8.292969-18.488282 18.488281v32.65625c0 41.007812 33.363282 74.371094 74.371094 74.371094 44.007812 0 77.160156-37.480469 74.183594-79.722656-.675782-9.589844-1.925782-19.558594-3.816406-30.480469zm-26.976563 76.328125c-36.59375 39.261718-102.761719 13.171875-102.761719-40.496094v-32.652344c0-1.925781 1.5625-3.488281 3.488282-3.488281h108.03125c1.699218 0 3.144531 1.207031 3.4375 2.875 1.804687 10.414063 2.992187 19.890625 3.632812 28.96875 1.175781 16.675781-4.445312 32.582031-15.828125 44.792969zm0 0"/><path d="m151.902344 386.480469h-108.03125c-9.015625 0-16.679688 6.441406-18.21875 15.3125-1.890625 10.921875-3.140625 20.890625-3.816406 30.480469-1.449219 20.570312 5.773437 41.007812 19.816406 56.078124 45.832031 49.171876 128.742187 16.535157 128.742187-50.726562v-32.652344c-.003906-10.195312-8.296875-18.492187-18.492187-18.492187zm3.488281 51.144531c0 53.675781-66.171875 79.753906-102.761719 40.496094-11.382812-12.207032-17.003906-28.117188-15.828125-44.792969.640625-9.078125 1.828125-18.554687 3.632813-28.96875.289062-1.667969 1.734375-2.875 3.4375-2.875h108.03125c1.921875 0 3.488281 1.5625 3.488281 3.488281zm0 0"/><path d="m443.917969 176.359375c-7.75-54.902344-24.316407-101.859375-49.246094-139.566406-39.703125-60.054688-132.660156-43.34375-148.820313 26.550781-1.480468 6.410156-2.785156 12.992188-3.882812 19.554688-.679688 4.085937 2.078125 7.953124 6.164062 8.632812 4.082032.679688 7.953126-2.078125 8.632813-6.164062 1.046875-6.261719 2.292969-12.535157 3.703125-18.644532 13.285156-57.457031 89.382812-70.523437 121.691406-21.65625 23.671875 35.8125 39.449219 80.65625 46.890625 133.292969 6.097657 53.476563-14.847656 86.570313-20.582031 154.199219-1.261719 14.863281-13.9375 26.507812-28.855469 26.507812h-65.355469c-16.027343 0-28.851562-13.085937-28.761718-29.171875.375-68.222656-18.609375-103.742187-25.140625-131.695312-6.582031-28.175781-8.890625-56.921875-6.855469-85.4375.292969-4.128907-2.816406-7.71875-6.949219-8.011719-4.128906-.304688-7.722656 2.8125-8.015625 6.949219-2.140625 30.015625.289063 60.269531 7.214844 89.914062 6.679688 28.589844 25.101562 62.9375 24.746094 128.199219-.132813 24.464844 19.464844 44.257812 43.761718 44.257812h65.355469c22.648438 0 41.886719-17.679687 43.800781-40.246093 5.527344-65.140625 27.703126-104.667969 20.503907-157.464844zm0 0"/><path d="m50.5 36.792969c-6.554688 9.917969-12.636719 20.667969-18.078125 31.945312-1.796875 3.730469-.230469 8.214844 3.5 10.015625 3.730469 1.796875 8.214844.230469 10.015625-3.5 5.144531-10.671875 10.890625-20.828125 17.078125-30.1875 32.277344-48.820312 108.390625-35.875 121.691406 21.65625 10.171875 44.011719 10.210938 88.246094.109375 131.476563-6.550781 28.054687-25.511718 63.390625-25.136718 131.691406.085937 16.09375-12.742188 29.175781-28.761719 29.175781h-65.355469c-14.917969 0-27.59375-11.644531-28.855469-26.507812-5.746093-67.75-26.691406-100.640625-20.582031-154.199219 3.875-27.402344 10.066406-52.941406 18.398438-75.90625 1.414062-3.894531-.59375-8.195313-4.488282-9.609375-3.898437-1.414062-8.199218.597656-9.609375 4.492188-9.59375 26.429687-16.625 58.042968-19.191406 79.21875-6.546875 57.144531 14.84375 90.316406 20.527344 157.269531 1.914062 22.566406 21.152343 40.246093 43.800781 40.246093h65.355469c24.269531 0 43.894531-19.769531 43.761719-44.257812-.355469-65.425781 18.007812-99.359375 24.746093-128.199219 10.625-45.484375 10.589844-92.003906-.101562-138.265625-15.921875-68.867187-108.660157-87.304687-148.824219-26.554687zm0 0"/></svg>